<svg width="72" height="91" viewBox="0 0 72 91" fill="none" xmlns="http://www.w3.org/2000/svg">
<path d="M27.94 32L22 38C21.34 38.6 20.46 39 19.5 39C18.5717 39 17.6815 38.6313 17.0251 37.9749C16.3687 37.3185 16 36.4283 16 35.5V35L18 20.24C18.42 15.62 22.28 12 27 12H45C49.72 12 53.58 15.62 54 20.24L56 35V35.5C56 36.4283 55.6312 37.3185 54.9749 37.9749C54.3185 38.6313 53.4283 39 52.5 39C51.54 39 50.66 38.6 50 38L44.06 32H27.94ZM26 16V20H22V22H26V26H28V22H32V20H28V16H26ZM45 16C44.6022 16 44.2206 16.158 43.9393 16.4393C43.658 16.7206 43.5 17.1022 43.5 17.5C43.5 17.8978 43.658 18.2794 43.9393 18.5607C44.2206 18.842 44.6022 19 45 19C45.3978 19 45.7794 18.842 46.0607 18.5607C46.342 18.2794 46.5 17.8978 46.5 17.5C46.5 17.1022 46.342 16.7206 46.0607 16.4393C45.7794 16.158 45.3978 16 45 16ZM41.5 19.5C41.1022 19.5 40.7206 19.658 40.4393 19.9393C40.158 20.2206 40 20.6022 40 21C40 21.3978 40.158 21.7794 40.4393 22.0607C40.7206 22.342 41.1022 22.5 41.5 22.5C41.8978 22.5 42.2794 22.342 42.5607 22.0607C42.842 21.7794 43 21.3978 43 21C43 20.6022 42.842 20.2206 42.5607 19.9393C42.2794 19.658 41.8978 19.5 41.5 19.5ZM48.5 19.5C48.1022 19.5 47.7206 19.658 47.4393 19.9393C47.158 20.2206 47 20.6022 47 21C47 21.3978 47.158 21.7794 47.4393 22.0607C47.7206 22.342 48.1022 22.5 48.5 22.5C48.8978 22.5 49.2794 22.342 49.5607 22.0607C49.842 21.7794 50 21.3978 50 21C50 20.6022 49.842 20.2206 49.5607 19.9393C49.2794 19.658 48.8978 19.5 48.5 19.5ZM45 23C44.6022 23 44.2206 23.158 43.9393 23.4393C43.658 23.7206 43.5 24.1022 43.5 24.5C43.5 24.8978 43.658 25.2794 43.9393 25.5607C44.2206 25.842 44.6022 26 45 26C45.3978 26 45.7794 25.842 46.0607 25.5607C46.342 25.2794 46.5 24.8978 46.5 24.5C46.5 24.1022 46.342 23.7206 46.0607 23.4393C45.7794 23.158 45.3978 23 45 23Z" fill="white"/>
<path d="M4.58344 85.15C3.58344 85.15 2.79344 84.87 2.21344 84.31C1.63344 83.75 1.34344 82.98 1.34344 82V77.05C1.34344 76.07 1.63344 75.3 2.21344 74.74C2.79344 74.18 3.58344 73.9 4.58344 73.9C5.56344 73.9 6.34344 74.185 6.92344 74.755C7.50344 75.315 7.79344 76.08 7.79344 77.05H6.44344C6.44344 76.43 6.27844 75.955 5.94844 75.625C5.62844 75.285 5.17344 75.115 4.58344 75.115C3.99344 75.115 3.52844 75.28 3.18844 75.61C2.85844 75.94 2.69344 76.415 2.69344 77.035V82C2.69344 82.62 2.85844 83.1 3.18844 83.44C3.52844 83.77 3.99344 83.935 4.58344 83.935C5.17344 83.935 5.62844 83.77 5.94844 83.44C6.27844 83.1 6.44344 82.62 6.44344 82H7.79344C7.79344 82.97 7.50344 83.74 6.92344 84.31C6.34344 84.87 5.56344 85.15 4.58344 85.15ZM13.5176 85.12C12.5176 85.12 11.7276 84.84 11.1476 84.28C10.5776 83.71 10.2926 82.94 10.2926 81.97V79.78C10.2926 78.8 10.5776 78.03 11.1476 77.47C11.7276 76.91 12.5176 76.63 13.5176 76.63C14.5176 76.63 15.3026 76.91 15.8726 77.47C16.4526 78.03 16.7426 78.795 16.7426 79.765V81.97C16.7426 82.94 16.4526 83.71 15.8726 84.28C15.3026 84.84 14.5176 85.12 13.5176 85.12ZM13.5176 83.92C14.1076 83.92 14.5676 83.755 14.8976 83.425C15.2276 83.095 15.3926 82.61 15.3926 81.97V79.78C15.3926 79.14 15.2276 78.655 14.8976 78.325C14.5676 77.995 14.1076 77.83 13.5176 77.83C12.9376 77.83 12.4776 77.995 12.1376 78.325C11.8076 78.655 11.6426 79.14 11.6426 79.78V81.97C11.6426 82.61 11.8076 83.095 12.1376 83.425C12.4776 83.755 12.9376 83.92 13.5176 83.92ZM19.3917 85V76.75H20.7417V78.325H20.7567C20.8267 77.775 21.0517 77.35 21.4317 77.05C21.8117 76.75 22.3167 76.6 22.9467 76.6C23.7767 76.6 24.4367 76.855 24.9267 77.365C25.4167 77.875 25.6617 78.57 25.6617 79.45V85H24.3117V79.6C24.3117 79.01 24.1517 78.56 23.8317 78.25C23.5217 77.93 23.0967 77.77 22.5567 77.77C21.9967 77.77 21.5517 77.94 21.2217 78.28C20.9017 78.62 20.7417 79.11 20.7417 79.75V85H19.3917ZM31.2509 85.12C30.4009 85.12 29.7059 84.925 29.1659 84.535C28.6259 84.145 28.3559 83.61 28.3559 82.93H29.7359C29.7359 83.24 29.8809 83.485 30.1709 83.665C30.4709 83.835 30.8409 83.92 31.2809 83.92H31.9109C32.4409 83.92 32.8359 83.815 33.0959 83.605C33.3559 83.385 33.4859 83.095 33.4859 82.735C33.4859 82.385 33.3609 82.11 33.1109 81.91C32.8709 81.7 32.5209 81.56 32.0609 81.49L30.9509 81.31C30.1309 81.17 29.5259 80.91 29.1359 80.53C28.7459 80.15 28.5509 79.625 28.5509 78.955C28.5509 78.205 28.7909 77.63 29.2709 77.23C29.7609 76.83 30.4609 76.63 31.3709 76.63H31.9409C32.7809 76.63 33.4509 76.82 33.9509 77.2C34.4609 77.57 34.7159 78.065 34.7159 78.685H33.3359C33.3359 78.425 33.2059 78.22 32.9459 78.07C32.6959 77.91 32.3509 77.83 31.9109 77.83H31.3409C30.8709 77.83 30.5059 77.93 30.2459 78.13C29.9959 78.32 29.8709 78.595 29.8709 78.955C29.8709 79.555 30.2959 79.925 31.1459 80.065L32.2559 80.245C33.1459 80.385 33.7909 80.645 34.1909 81.025C34.6009 81.405 34.8059 81.955 34.8059 82.675C34.8059 83.435 34.5609 84.035 34.0709 84.475C33.5909 84.905 32.8609 85.12 31.8809 85.12H31.2509ZM40.5 85.12C39.5 85.12 38.71 84.84 38.13 84.28C37.56 83.71 37.275 82.94 37.275 81.97V79.78C37.275 78.8 37.56 78.03 38.13 77.47C38.71 76.91 39.5 76.63 40.5 76.63C41.5 76.63 42.285 76.91 42.855 77.47C43.435 78.03 43.725 78.795 43.725 79.765V81.97C43.725 82.94 43.435 83.71 42.855 84.28C42.285 84.84 41.5 85.12 40.5 85.12ZM40.5 83.92C41.09 83.92 41.55 83.755 41.88 83.425C42.21 83.095 42.375 82.61 42.375 81.97V79.78C42.375 79.14 42.21 78.655 41.88 78.325C41.55 77.995 41.09 77.83 40.5 77.83C39.92 77.83 39.46 77.995 39.12 78.325C38.79 78.655 38.625 79.14 38.625 79.78V81.97C38.625 82.61 38.79 83.095 39.12 83.425C39.46 83.755 39.92 83.92 40.5 83.92ZM50.6941 85C49.9641 85 49.3791 84.79 48.9391 84.37C48.5091 83.94 48.2941 83.375 48.2941 82.675V75.28H45.4441V74.05H49.6441V82.675C49.6441 83.015 49.7391 83.285 49.9291 83.485C50.1191 83.675 50.3741 83.77 50.6941 83.77H53.2441V85H50.6941ZM58.4883 85.15C57.8383 85.15 57.2683 85.02 56.7783 84.76C56.2983 84.5 55.9233 84.135 55.6533 83.665C55.3933 83.185 55.2633 82.63 55.2633 82V79.75C55.2633 79.11 55.3933 78.555 55.6533 78.085C55.9233 77.615 56.2983 77.25 56.7783 76.99C57.2683 76.73 57.8383 76.6 58.4883 76.6C59.1383 76.6 59.7033 76.73 60.1833 76.99C60.6733 77.25 61.0483 77.615 61.3083 78.085C61.5783 78.555 61.7133 79.11 61.7133 79.75V81.205H56.5833V82C56.5833 82.65 56.7483 83.15 57.0783 83.5C57.4083 83.84 57.8783 84.01 58.4883 84.01C59.0083 84.01 59.4283 83.92 59.7483 83.74C60.0683 83.55 60.2633 83.27 60.3333 82.9H61.6833C61.5933 83.59 61.2533 84.14 60.6633 84.55C60.0833 84.95 59.3583 85.15 58.4883 85.15ZM56.5833 80.185H60.3933V79.75C60.3933 79.1 60.2283 78.6 59.8983 78.25C59.5783 77.9 59.1083 77.725 58.4883 77.725C57.8783 77.725 57.4083 77.9 57.0783 78.25C56.7483 78.6 56.5833 79.1 56.5833 79.75V80.185ZM67.2274 85.12C66.3774 85.12 65.6824 84.925 65.1424 84.535C64.6024 84.145 64.3324 83.61 64.3324 82.93H65.7124C65.7124 83.24 65.8574 83.485 66.1474 83.665C66.4474 83.835 66.8174 83.92 67.2574 83.92H67.8874C68.4174 83.92 68.8124 83.815 69.0724 83.605C69.3324 83.385 69.4624 83.095 69.4624 82.735C69.4624 82.385 69.3374 82.11 69.0874 81.91C68.8474 81.7 68.4974 81.56 68.0374 81.49L66.9274 81.31C66.1074 81.17 65.5024 80.91 65.1124 80.53C64.7224 80.15 64.5274 79.625 64.5274 78.955C64.5274 78.205 64.7674 77.63 65.2474 77.23C65.7374 76.83 66.4374 76.63 67.3474 76.63H67.9174C68.7574 76.63 69.4274 76.82 69.9274 77.2C70.4374 77.57 70.6924 78.065 70.6924 78.685H69.3124C69.3124 78.425 69.1824 78.22 68.9224 78.07C68.6724 77.91 68.3274 77.83 67.8874 77.83H67.3174C66.8474 77.83 66.4824 77.93 66.2224 78.13C65.9724 78.32 65.8474 78.595 65.8474 78.955C65.8474 79.555 66.2724 79.925 67.1224 80.065L68.2324 80.245C69.1224 80.385 69.7674 80.645 70.1674 81.025C70.5774 81.405 70.7824 81.955 70.7824 82.675C70.7824 83.435 70.5374 84.035 70.0474 84.475C69.5674 84.905 68.8374 85.12 67.8574 85.12H67.2274Z" fill="white"/>
</svg>
