<svg width="63" height="91" viewBox="0 0 63 91" fill="none" xmlns="http://www.w3.org/2000/svg">
<path d="M15 12H47V32H15M47 36C48.0609 36 49.0783 35.5786 49.8284 34.8284C50.5786 34.0783 51 33.0609 51 32V12C51 9.78 49.2 8 47 8H15C12.78 8 11 9.78 11 12V32C11 33.0609 11.4214 34.0783 12.1716 34.8284C12.9217 35.5786 13.9391 36 15 36H7V40H55V36H47Z" fill="white"/>
<path d="M1.40051 85V74.05H4.23551C4.94551 74.05 5.55551 74.185 6.06551 74.455C6.58551 74.725 6.98551 75.105 7.26551 75.595C7.55551 76.085 7.70051 76.665 7.70051 77.335V81.7C7.70051 82.37 7.55551 82.955 7.26551 83.455C6.98551 83.945 6.58551 84.325 6.06551 84.595C5.55551 84.865 4.94551 85 4.23551 85H1.40051ZM2.75051 83.8H4.23551C4.89551 83.8 5.41051 83.615 5.78051 83.245C6.16051 82.875 6.35051 82.36 6.35051 81.7V77.335C6.35051 76.685 6.16051 76.175 5.78051 75.805C5.41051 75.435 4.89551 75.25 4.23551 75.25H2.75051V83.8ZM13.5146 85.15C12.8646 85.15 12.2946 85.02 11.8046 84.76C11.3246 84.5 10.9496 84.135 10.6796 83.665C10.4196 83.185 10.2896 82.63 10.2896 82V79.75C10.2896 79.11 10.4196 78.555 10.6796 78.085C10.9496 77.615 11.3246 77.25 11.8046 76.99C12.2946 76.73 12.8646 76.6 13.5146 76.6C14.1646 76.6 14.7296 76.73 15.2096 76.99C15.6996 77.25 16.0746 77.615 16.3346 78.085C16.6046 78.555 16.7396 79.11 16.7396 79.75V81.205H11.6096V82C11.6096 82.65 11.7746 83.15 12.1046 83.5C12.4346 83.84 12.9046 84.01 13.5146 84.01C14.0346 84.01 14.4546 83.92 14.7746 83.74C15.0946 83.55 15.2896 83.27 15.3596 82.9H16.7096C16.6196 83.59 16.2796 84.14 15.6896 84.55C15.1096 84.95 14.3846 85.15 13.5146 85.15ZM11.6096 80.185H15.4196V79.75C15.4196 79.1 15.2546 78.6 14.9246 78.25C14.6046 77.9 14.1346 77.725 13.5146 77.725C12.9046 77.725 12.4346 77.9 12.1046 78.25C11.7746 78.6 11.6096 79.1 11.6096 79.75V80.185ZM22.2538 85.12C21.4038 85.12 20.7088 84.925 20.1688 84.535C19.6288 84.145 19.3588 83.61 19.3588 82.93H20.7388C20.7388 83.24 20.8838 83.485 21.1738 83.665C21.4738 83.835 21.8438 83.92 22.2838 83.92H22.9138C23.4438 83.92 23.8388 83.815 24.0988 83.605C24.3588 83.385 24.4888 83.095 24.4888 82.735C24.4888 82.385 24.3638 82.11 24.1138 81.91C23.8738 81.7 23.5238 81.56 23.0638 81.49L21.9538 81.31C21.1338 81.17 20.5288 80.91 20.1388 80.53C19.7488 80.15 19.5538 79.625 19.5538 78.955C19.5538 78.205 19.7938 77.63 20.2738 77.23C20.7638 76.83 21.4638 76.63 22.3738 76.63H22.9438C23.7838 76.63 24.4538 76.82 24.9538 77.2C25.4638 77.57 25.7188 78.065 25.7188 78.685H24.3388C24.3388 78.425 24.2088 78.22 23.9488 78.07C23.6988 77.91 23.3538 77.83 22.9138 77.83H22.3438C21.8738 77.83 21.5088 77.93 21.2488 78.13C20.9988 78.32 20.8738 78.595 20.8738 78.955C20.8738 79.555 21.2988 79.925 22.1488 80.065L23.2588 80.245C24.1488 80.385 24.7938 80.645 25.1938 81.025C25.6038 81.405 25.8088 81.955 25.8088 82.675C25.8088 83.435 25.5638 84.035 25.0738 84.475C24.5938 84.905 23.8638 85.12 22.8838 85.12H22.2538ZM28.4279 85V74.05H29.7779V80.155H31.3679L33.7679 76.75H35.3129L32.5379 80.68L35.3579 85H33.7829L31.3829 81.325H29.7779V85H28.4279ZM41.3971 85C40.7171 85 40.1721 84.805 39.7621 84.415C39.3521 84.015 39.1471 83.485 39.1471 82.825V77.98H36.8221V76.75H39.1471V74.425H40.4971V76.75H43.7971V77.98H40.4971V82.825C40.4971 83.105 40.5771 83.335 40.7371 83.515C40.9071 83.685 41.1271 83.77 41.3971 83.77H43.6471V85H41.3971ZM49.4912 85.12C48.4912 85.12 47.7012 84.84 47.1212 84.28C46.5512 83.71 46.2662 82.94 46.2662 81.97V79.78C46.2662 78.8 46.5512 78.03 47.1212 77.47C47.7012 76.91 48.4912 76.63 49.4912 76.63C50.4912 76.63 51.2762 76.91 51.8462 77.47C52.4262 78.03 52.7162 78.795 52.7162 79.765V81.97C52.7162 82.94 52.4262 83.71 51.8462 84.28C51.2762 84.84 50.4912 85.12 49.4912 85.12ZM49.4912 83.92C50.0812 83.92 50.5412 83.755 50.8712 83.425C51.2012 83.095 51.3662 82.61 51.3662 81.97V79.78C51.3662 79.14 51.2012 78.655 50.8712 78.325C50.5412 77.995 50.0812 77.83 49.4912 77.83C48.9112 77.83 48.4512 77.995 48.1112 78.325C47.7812 78.655 47.6162 79.14 47.6162 79.78V81.97C47.6162 82.61 47.7812 83.095 48.1112 83.425C48.4512 83.755 48.9112 83.92 49.4912 83.92ZM55.3804 87.7V76.75H56.7304V78.325H56.7454C56.8154 77.785 57.0504 77.365 57.4504 77.065C57.8604 76.755 58.3754 76.6 58.9954 76.6C59.8254 76.6 60.4854 76.875 60.9754 77.425C61.4754 77.965 61.7254 78.71 61.7254 79.66V82.075C61.7254 83.025 61.4754 83.775 60.9754 84.325C60.4854 84.875 59.8254 85.15 58.9954 85.15C58.3754 85.15 57.8654 84.995 57.4654 84.685C57.0654 84.375 56.8254 83.955 56.7454 83.425H56.7004L56.7304 85.3V87.7H55.3804ZM58.5454 83.98C59.1154 83.98 59.5604 83.81 59.8804 83.47C60.2104 83.13 60.3754 82.64 60.3754 82V79.75C60.3754 79.11 60.2104 78.62 59.8804 78.28C59.5604 77.94 59.1154 77.77 58.5454 77.77C57.9954 77.77 57.5554 77.945 57.2254 78.295C56.8954 78.645 56.7304 79.13 56.7304 79.75V82C56.7304 82.62 56.8954 83.105 57.2254 83.455C57.5554 83.805 57.9954 83.98 58.5454 83.98Z" fill="white"/>
</svg>
