<svg width="48" height="91" viewBox="0 0 48 91" fill="none" xmlns="http://www.w3.org/2000/svg">
<path d="M34 38H14V10H34M34 2H14C11.78 2 10 3.78 10 6V42C10 43.0609 10.4214 44.0783 11.1716 44.8284C11.9217 45.5786 12.9391 46 14 46H34C35.0609 46 36.0783 45.5786 36.8284 44.8284C37.5786 44.0783 38 43.0609 38 42V6C38 3.78 36.2 2 34 2Z" fill="white"/>
<path d="M2.39465 85V74.05H5.91965C6.93965 74.05 7.74965 74.345 8.34965 74.935C8.95965 75.515 9.26465 76.295 9.26465 77.275C9.26465 78.255 8.95965 79.04 8.34965 79.63C7.74965 80.21 6.93965 80.5 5.91965 80.5H3.74465V85H2.39465ZM3.74465 79.285H5.91965C6.50965 79.285 6.97965 79.105 7.32965 78.745C7.68965 78.375 7.86965 77.885 7.86965 77.275C7.86965 76.655 7.68965 76.165 7.32965 75.805C6.97965 75.445 6.50965 75.265 5.91965 75.265H3.74465V79.285ZM11.3888 85V74.05H12.7388V78.325H12.7538C12.8238 77.775 13.0488 77.35 13.4288 77.05C13.8088 76.75 14.3138 76.6 14.9438 76.6C15.7738 76.6 16.4338 76.855 16.9238 77.365C17.4138 77.875 17.6588 78.57 17.6588 79.45V85H16.3088V79.6C16.3088 79.01 16.1488 78.555 15.8288 78.235C15.5188 77.905 15.0938 77.74 14.5538 77.74C13.9938 77.74 13.5488 77.915 13.2188 78.265C12.8988 78.615 12.7388 79.11 12.7388 79.75V85H11.3888ZM23.5029 85.12C22.5029 85.12 21.7129 84.84 21.1329 84.28C20.5629 83.71 20.2779 82.94 20.2779 81.97V79.78C20.2779 78.8 20.5629 78.03 21.1329 77.47C21.7129 76.91 22.5029 76.63 23.5029 76.63C24.5029 76.63 25.2879 76.91 25.8579 77.47C26.4379 78.03 26.7279 78.795 26.7279 79.765V81.97C26.7279 82.94 26.4379 83.71 25.8579 84.28C25.2879 84.84 24.5029 85.12 23.5029 85.12ZM23.5029 83.92C24.0929 83.92 24.5529 83.755 24.8829 83.425C25.2129 83.095 25.3779 82.61 25.3779 81.97V79.78C25.3779 79.14 25.2129 78.655 24.8829 78.325C24.5529 77.995 24.0929 77.83 23.5029 77.83C22.9229 77.83 22.4629 77.995 22.1229 78.325C21.7929 78.655 21.6279 79.14 21.6279 79.78V81.97C21.6279 82.61 21.7929 83.095 22.1229 83.425C22.4629 83.755 22.9229 83.92 23.5029 83.92ZM29.3771 85V76.75H30.7271V78.325H30.7421C30.8121 77.775 31.0371 77.35 31.4171 77.05C31.7971 76.75 32.3021 76.6 32.9321 76.6C33.7621 76.6 34.4221 76.855 34.9121 77.365C35.4021 77.875 35.6471 78.57 35.6471 79.45V85H34.2971V79.6C34.2971 79.01 34.1371 78.56 33.8171 78.25C33.5071 77.93 33.0821 77.77 32.5421 77.77C31.9821 77.77 31.5371 77.94 31.2071 78.28C30.8871 78.62 30.7271 79.11 30.7271 79.75V85H29.3771ZM41.4912 85.15C40.8412 85.15 40.2712 85.02 39.7812 84.76C39.3012 84.5 38.9262 84.135 38.6562 83.665C38.3962 83.185 38.2662 82.63 38.2662 82V79.75C38.2662 79.11 38.3962 78.555 38.6562 78.085C38.9262 77.615 39.3012 77.25 39.7812 76.99C40.2712 76.73 40.8412 76.6 41.4912 76.6C42.1412 76.6 42.7062 76.73 43.1862 76.99C43.6762 77.25 44.0512 77.615 44.3112 78.085C44.5812 78.555 44.7162 79.11 44.7162 79.75V81.205H39.5862V82C39.5862 82.65 39.7512 83.15 40.0812 83.5C40.4112 83.84 40.8812 84.01 41.4912 84.01C42.0112 84.01 42.4312 83.92 42.7512 83.74C43.0712 83.55 43.2662 83.27 43.3362 82.9H44.6862C44.5962 83.59 44.2562 84.14 43.6662 84.55C43.0862 84.95 42.3612 85.15 41.4912 85.15ZM39.5862 80.185H43.3962V79.75C43.3962 79.1 43.2312 78.6 42.9012 78.25C42.5812 77.9 42.1112 77.725 41.4912 77.725C40.8812 77.725 40.4112 77.9 40.0812 78.25C39.7512 78.6 39.5862 79.1 39.5862 79.75V80.185Z" fill="white"/>
</svg>
