<svg width="54" height="91" viewBox="0 0 54 91" fill="none" xmlns="http://www.w3.org/2000/svg">
<path d="M41 36H13V12H41M45 8H9C6.78 8 5 9.78 5 12V36C5 37.0609 5.42143 38.0783 6.17157 38.8284C6.92172 39.5786 7.93913 40 9 40H45C46.0609 40 47.0783 39.5786 47.8284 38.8284C48.5786 38.0783 49 37.0609 49 36V12C49 9.78 47.2 8 45 8Z" fill="white"/>
<path d="M3.84258 85V75.28H0.842578V74.05H8.19258V75.28H5.19258V85H3.84258ZM12.7917 85.15C11.9217 85.15 11.2367 84.93 10.7367 84.49C10.2367 84.04 9.98672 83.435 9.98672 82.675C9.98672 81.905 10.2367 81.3 10.7367 80.86C11.2367 80.42 11.9117 80.2 12.7617 80.2H15.3117V79.375C15.3117 78.875 15.1567 78.485 14.8467 78.205C14.5467 77.925 14.1267 77.785 13.5867 77.785C13.1067 77.785 12.7017 77.89 12.3717 78.1C12.0417 78.31 11.8367 78.585 11.7567 78.925H10.4067C10.4567 78.465 10.6217 78.06 10.9017 77.71C11.1917 77.36 11.5667 77.09 12.0267 76.9C12.4967 76.7 13.0167 76.6 13.5867 76.6C14.5367 76.6 15.2867 76.845 15.8367 77.335C16.3867 77.825 16.6617 78.49 16.6617 79.33V85H15.3417V83.425H15.3267C15.2667 83.955 15.0067 84.375 14.5467 84.685C14.0967 84.995 13.5117 85.15 12.7917 85.15ZM13.1217 84.085C13.7617 84.085 14.2867 83.925 14.6967 83.605C15.1067 83.285 15.3117 82.875 15.3117 82.375V81.205H12.7917C12.3417 81.205 11.9867 81.33 11.7267 81.58C11.4667 81.83 11.3367 82.17 11.3367 82.6C11.3367 83.06 11.4917 83.425 11.8017 83.695C12.1217 83.955 12.5617 84.085 13.1217 84.085ZM22.9859 85.15C22.3659 85.15 21.8559 85 21.4559 84.7C21.0559 84.39 20.8209 83.965 20.7509 83.425H20.7359V85H19.3859V74.05H20.7359V76.45L20.7059 78.325H20.7509C20.8209 77.795 21.0559 77.375 21.4559 77.065C21.8559 76.755 22.3659 76.6 22.9859 76.6C23.8159 76.6 24.4809 76.875 24.9809 77.425C25.4809 77.975 25.7309 78.725 25.7309 79.675V82.09C25.7309 83.03 25.4809 83.775 24.9809 84.325C24.4809 84.875 23.8159 85.15 22.9859 85.15ZM22.5359 83.98C23.1059 83.98 23.5559 83.81 23.8859 83.47C24.2159 83.13 24.3809 82.64 24.3809 82V79.75C24.3809 79.11 24.2159 78.62 23.8859 78.28C23.5559 77.94 23.1059 77.77 22.5359 77.77C21.9859 77.77 21.5459 77.945 21.2159 78.295C20.8959 78.645 20.7359 79.13 20.7359 79.75V82C20.7359 82.62 20.8959 83.105 21.2159 83.455C21.5459 83.805 21.9859 83.98 22.5359 83.98ZM32.7 85C31.97 85 31.385 84.79 30.945 84.37C30.515 83.94 30.3 83.375 30.3 82.675V75.28H27.45V74.05H31.65V82.675C31.65 83.015 31.745 83.285 31.935 83.485C32.125 83.675 32.38 83.77 32.7 83.77H35.25V85H32.7ZM40.4941 85.15C39.8441 85.15 39.2741 85.02 38.7841 84.76C38.3041 84.5 37.9291 84.135 37.6591 83.665C37.3991 83.185 37.2691 82.63 37.2691 82V79.75C37.2691 79.11 37.3991 78.555 37.6591 78.085C37.9291 77.615 38.3041 77.25 38.7841 76.99C39.2741 76.73 39.8441 76.6 40.4941 76.6C41.1441 76.6 41.7091 76.73 42.1891 76.99C42.6791 77.25 43.0541 77.615 43.3141 78.085C43.5841 78.555 43.7191 79.11 43.7191 79.75V81.205H38.5891V82C38.5891 82.65 38.7541 83.15 39.0841 83.5C39.4141 83.84 39.8841 84.01 40.4941 84.01C41.0141 84.01 41.4341 83.92 41.7541 83.74C42.0741 83.55 42.2691 83.27 42.3391 82.9H43.6891C43.5991 83.59 43.2591 84.14 42.6691 84.55C42.0891 84.95 41.3641 85.15 40.4941 85.15ZM38.5891 80.185H42.3991V79.75C42.3991 79.1 42.2341 78.6 41.9041 78.25C41.5841 77.9 41.1141 77.725 40.4941 77.725C39.8841 77.725 39.4141 77.9 39.0841 78.25C38.7541 78.6 38.5891 79.1 38.5891 79.75V80.185ZM50.3883 85C49.7083 85 49.1633 84.805 48.7533 84.415C48.3433 84.015 48.1383 83.485 48.1383 82.825V77.98H45.8133V76.75H48.1383V74.425H49.4883V76.75H52.7883V77.98H49.4883V82.825C49.4883 83.105 49.5683 83.335 49.7283 83.515C49.8983 83.685 50.1183 83.77 50.3883 83.77H52.6383V85H50.3883Z" fill="white"/>
</svg>
