<svg width="72" height="91" viewBox="0 0 72 91" fill="none" xmlns="http://www.w3.org/2000/svg">
<path d="M54 34H18V10H54M54 6H18C16.9391 6 15.9217 6.42143 15.1716 7.17157C14.4214 7.92172 14 8.93913 14 10V34C14 35.0609 14.4214 36.0783 15.1716 36.8284C15.9217 37.5786 16.9391 38 18 38H28V42H44V38H54C55.0609 38 56.0783 37.5786 56.8284 36.8284C57.5786 36.0783 58 35.0609 58 34V10C58 8.93913 57.5786 7.92172 56.8284 7.17157C56.0783 6.42143 55.0609 6 54 6Z" fill="white"/>
<path d="M4.58344 85.15C3.52344 85.15 2.67844 84.875 2.04844 84.325C1.41844 83.775 1.10344 83.04 1.10344 82.12H2.45344C2.45344 82.67 2.64844 83.115 3.03844 83.455C3.42844 83.785 3.94344 83.95 4.58344 83.95C5.20344 83.95 5.69844 83.785 6.06844 83.455C6.43844 83.115 6.62344 82.67 6.62344 82.12C6.62344 81.69 6.50844 81.315 6.27844 80.995C6.05844 80.665 5.75344 80.44 5.36344 80.32L3.74344 79.81C3.01344 79.58 2.43844 79.2 2.01844 78.67C1.60844 78.14 1.40344 77.525 1.40344 76.825C1.40344 75.935 1.69344 75.225 2.27344 74.695C2.86344 74.165 3.64344 73.9 4.61344 73.9C5.58344 73.9 6.35844 74.165 6.93844 74.695C7.51844 75.225 7.80844 75.935 7.80844 76.825H6.45844C6.45844 76.295 6.28844 75.875 5.94844 75.565C5.61844 75.255 5.17344 75.1 4.61344 75.1C4.04344 75.1 3.58344 75.255 3.23344 75.565C2.89344 75.875 2.72344 76.285 2.72344 76.795C2.72344 77.195 2.83844 77.54 3.06844 77.83C3.29844 78.12 3.61344 78.33 4.01344 78.46L5.69344 79C6.38344 79.22 6.92844 79.61 7.32844 80.17C7.73844 80.73 7.94344 81.38 7.94344 82.12C7.94344 83.04 7.63844 83.775 7.02844 84.325C6.41844 84.875 5.60344 85.15 4.58344 85.15ZM9.91758 85V76.75H11.1026V77.74H11.1926C11.2626 77.4 11.4176 77.125 11.6576 76.915C11.9076 76.705 12.2126 76.6 12.5726 76.6C12.9026 76.6 13.1876 76.705 13.4276 76.915C13.6676 77.115 13.8376 77.39 13.9376 77.74H14.0276C14.0976 77.4 14.2576 77.125 14.5076 76.915C14.7576 76.705 15.0676 76.6 15.4376 76.6C15.9376 76.6 16.3426 76.8 16.6526 77.2C16.9626 77.59 17.1176 78.1 17.1176 78.73V85H15.8726V78.715C15.8726 78.365 15.7926 78.1 15.6326 77.92C15.4826 77.73 15.2626 77.635 14.9726 77.635C14.6826 77.635 14.4576 77.73 14.2976 77.92C14.1376 78.1 14.0576 78.36 14.0576 78.7V85H12.9776V78.715C12.9776 78.365 12.8926 78.1 12.7226 77.92C12.5626 77.73 12.3376 77.635 12.0476 77.635C11.7676 77.635 11.5476 77.73 11.3876 77.92C11.2376 78.1 11.1626 78.36 11.1626 78.7V85H9.91758ZM21.7917 85.15C20.9217 85.15 20.2367 84.93 19.7367 84.49C19.2367 84.04 18.9867 83.435 18.9867 82.675C18.9867 81.905 19.2367 81.3 19.7367 80.86C20.2367 80.42 20.9117 80.2 21.7617 80.2H24.3117V79.375C24.3117 78.875 24.1567 78.485 23.8467 78.205C23.5467 77.925 23.1267 77.785 22.5867 77.785C22.1067 77.785 21.7017 77.89 21.3717 78.1C21.0417 78.31 20.8367 78.585 20.7567 78.925H19.4067C19.4567 78.465 19.6217 78.06 19.9017 77.71C20.1917 77.36 20.5667 77.09 21.0267 76.9C21.4967 76.7 22.0167 76.6 22.5867 76.6C23.5367 76.6 24.2867 76.845 24.8367 77.335C25.3867 77.825 25.6617 78.49 25.6617 79.33V85H24.3417V83.425H24.3267C24.2667 83.955 24.0067 84.375 23.5467 84.685C23.0967 84.995 22.5117 85.15 21.7917 85.15ZM22.1217 84.085C22.7617 84.085 23.2867 83.925 23.6967 83.605C24.1067 83.285 24.3117 82.875 24.3117 82.375V81.205H21.7917C21.3417 81.205 20.9867 81.33 20.7267 81.58C20.4667 81.83 20.3367 82.17 20.3367 82.6C20.3367 83.06 20.4917 83.425 20.8017 83.695C21.1217 83.955 21.5617 84.085 22.1217 84.085ZM28.6409 85V76.75H29.9909V78.325H30.0059C30.0759 77.775 30.3009 77.35 30.6809 77.05C31.0609 76.75 31.5659 76.6 32.1959 76.6C33.0559 76.6 33.7409 76.875 34.2509 77.425C34.7609 77.965 35.0159 78.7 35.0159 79.63V80.2H33.6659V79.75C33.6659 79.12 33.5059 78.635 33.1859 78.295C32.8659 77.945 32.4009 77.77 31.7909 77.77C30.5909 77.77 29.9909 78.43 29.9909 79.75V85H28.6409ZM41.4 85C40.72 85 40.175 84.805 39.765 84.415C39.355 84.015 39.15 83.485 39.15 82.825V77.98H36.825V76.75H39.15V74.425H40.5V76.75H43.8V77.98H40.5V82.825C40.5 83.105 40.58 83.335 40.74 83.515C40.91 83.685 41.13 83.77 41.4 83.77H43.65V85H41.4ZM57.8133 85V75.28H54.8133V74.05H62.1633V75.28H59.1633V85H57.8133ZM66.5974 85L63.7324 76.75H65.1274L67.0474 82.3C67.1574 82.63 67.2524 82.95 67.3324 83.26C67.4124 83.56 67.4724 83.795 67.5124 83.965C67.5624 83.795 67.6224 83.56 67.6924 83.26C67.7624 82.95 67.8524 82.63 67.9624 82.3L69.8224 76.75H71.2324L68.3674 85H66.5974Z" fill="white"/>
</svg>
